<mxfile host="app.diagrams.net" agent="Mozilla/5.0 (X11; Linux x86_64; rv:128.0) Gecko/20100101 Firefox/128.0" version="26.1.1">
  <diagram name="Page-1" id="J7wlptnP21fGvc42T-Pi">
    <mxGraphModel dx="910" dy="547" grid="1" gridSize="10" guides="1" tooltips="1" connect="1" arrows="1" fold="1" page="1" pageScale="1" pageWidth="827" pageHeight="1169" math="0" shadow="0">
      <root>
        <mxCell id="0" />
        <mxCell id="1" parent="0" />
        <mxCell id="Z-IHUxBxVy7noMWJ0GKX-1" value="" style="rounded=0;whiteSpace=wrap;html=1;" parent="1" vertex="1">
          <mxGeometry x="40" y="40" width="240" height="320" as="geometry" />
        </mxCell>
        <mxCell id="Z-IHUxBxVy7noMWJ0GKX-10" value="" style="rounded=0;whiteSpace=wrap;html=1;" parent="1" vertex="1">
          <mxGeometry x="40" y="40" width="80" height="320" as="geometry" />
        </mxCell>
        <mxCell id="Z-IHUxBxVy7noMWJ0GKX-2" value="&lt;div&gt;Menu&lt;/div&gt;" style="swimlane;fontStyle=0;childLayout=stackLayout;horizontal=1;startSize=30;horizontalStack=0;resizeParent=1;resizeParentMax=0;resizeLast=0;collapsible=1;marginBottom=0;whiteSpace=wrap;html=1;" parent="1" vertex="1">
          <mxGeometry x="40" y="40" width="80" height="180" as="geometry" />
        </mxCell>
        <mxCell id="Z-IHUxBxVy7noMWJ0GKX-3" value="Home" style="text;strokeColor=none;fillColor=none;align=left;verticalAlign=middle;spacingLeft=4;spacingRight=4;overflow=hidden;points=[[0,0.5],[1,0.5]];portConstraint=eastwest;rotatable=0;whiteSpace=wrap;html=1;" parent="Z-IHUxBxVy7noMWJ0GKX-2" vertex="1">
          <mxGeometry y="30" width="80" height="30" as="geometry" />
        </mxCell>
        <mxCell id="Z-IHUxBxVy7noMWJ0GKX-4" value="&lt;div&gt;Settings&lt;/div&gt;" style="text;strokeColor=none;fillColor=none;align=left;verticalAlign=middle;spacingLeft=4;spacingRight=4;overflow=hidden;points=[[0,0.5],[1,0.5]];portConstraint=eastwest;rotatable=0;whiteSpace=wrap;html=1;" parent="Z-IHUxBxVy7noMWJ0GKX-2" vertex="1">
          <mxGeometry y="60" width="80" height="30" as="geometry" />
        </mxCell>
        <mxCell id="Z-IHUxBxVy7noMWJ0GKX-5" value="Instances" style="text;strokeColor=none;fillColor=none;align=left;verticalAlign=middle;spacingLeft=4;spacingRight=4;overflow=hidden;points=[[0,0.5],[1,0.5]];portConstraint=eastwest;rotatable=0;whiteSpace=wrap;html=1;" parent="Z-IHUxBxVy7noMWJ0GKX-2" vertex="1">
          <mxGeometry y="90" width="80" height="30" as="geometry" />
        </mxCell>
        <mxCell id="Z-IHUxBxVy7noMWJ0GKX-7" value="&lt;div&gt;Changelog&lt;/div&gt;" style="text;strokeColor=none;fillColor=none;align=left;verticalAlign=middle;spacingLeft=4;spacingRight=4;overflow=hidden;points=[[0,0.5],[1,0.5]];portConstraint=eastwest;rotatable=0;whiteSpace=wrap;html=1;" parent="Z-IHUxBxVy7noMWJ0GKX-2" vertex="1">
          <mxGeometry y="120" width="80" height="30" as="geometry" />
        </mxCell>
        <mxCell id="Z-IHUxBxVy7noMWJ0GKX-8" value="About" style="text;strokeColor=none;fillColor=none;align=left;verticalAlign=middle;spacingLeft=4;spacingRight=4;overflow=hidden;points=[[0,0.5],[1,0.5]];portConstraint=eastwest;rotatable=0;whiteSpace=wrap;html=1;" parent="Z-IHUxBxVy7noMWJ0GKX-2" vertex="1">
          <mxGeometry y="150" width="80" height="30" as="geometry" />
        </mxCell>
        <mxCell id="kRCQJ_Mu76d9EHlZ53zh-2" value="Home" style="text;html=1;align=center;verticalAlign=middle;whiteSpace=wrap;rounded=0;" parent="1" vertex="1">
          <mxGeometry x="40" y="380" width="60" height="30" as="geometry" />
        </mxCell>
        <mxCell id="qrfUnAD27jfFioBGeQ4u-1" value="" style="swimlane;startSize=0;" vertex="1" parent="1">
          <mxGeometry x="320" y="440" width="440" height="320" as="geometry" />
        </mxCell>
        <mxCell id="kRCQJ_Mu76d9EHlZ53zh-12" value="banner.jpg" style="rounded=0;whiteSpace=wrap;html=1;" parent="qrfUnAD27jfFioBGeQ4u-1" vertex="1">
          <mxGeometry x="10" y="10" width="420" height="170" as="geometry" />
        </mxCell>
        <mxCell id="kRCQJ_Mu76d9EHlZ53zh-3" value="" style="rounded=1;whiteSpace=wrap;html=1;" parent="qrfUnAD27jfFioBGeQ4u-1" vertex="1">
          <mxGeometry x="210" y="220" width="220" height="90" as="geometry" />
        </mxCell>
        <mxCell id="kRCQJ_Mu76d9EHlZ53zh-4" value="Website" style="rounded=1;whiteSpace=wrap;html=1;" parent="qrfUnAD27jfFioBGeQ4u-1" vertex="1">
          <mxGeometry x="220" y="230" width="90" height="30" as="geometry" />
        </mxCell>
        <mxCell id="kRCQJ_Mu76d9EHlZ53zh-8" value="Discord" style="rounded=1;whiteSpace=wrap;html=1;" parent="qrfUnAD27jfFioBGeQ4u-1" vertex="1">
          <mxGeometry x="220" y="270" width="90" height="30" as="geometry" />
        </mxCell>
        <mxCell id="kRCQJ_Mu76d9EHlZ53zh-9" value="&lt;div&gt;Patreon&lt;/div&gt;" style="rounded=1;whiteSpace=wrap;html=1;" parent="qrfUnAD27jfFioBGeQ4u-1" vertex="1">
          <mxGeometry x="330" y="270" width="90" height="30" as="geometry" />
        </mxCell>
        <mxCell id="kRCQJ_Mu76d9EHlZ53zh-5" value="Github" style="rounded=1;whiteSpace=wrap;html=1;" parent="qrfUnAD27jfFioBGeQ4u-1" vertex="1">
          <mxGeometry x="330" y="230" width="90" height="30" as="geometry" />
        </mxCell>
        <mxCell id="kRCQJ_Mu76d9EHlZ53zh-10" value="&lt;b&gt;Play&lt;/b&gt;" style="rounded=1;whiteSpace=wrap;html=1;" parent="qrfUnAD27jfFioBGeQ4u-1" vertex="1">
          <mxGeometry x="10" y="250" width="190" height="30" as="geometry" />
        </mxCell>
        <mxCell id="kRCQJ_Mu76d9EHlZ53zh-11" value="&lt;b&gt;&lt;font style=&quot;font-size: 16px;&quot;&gt;Welcome to Project-86&lt;/font&gt;&lt;/b&gt;" style="text;html=1;align=center;verticalAlign=middle;whiteSpace=wrap;rounded=0;" parent="qrfUnAD27jfFioBGeQ4u-1" vertex="1">
          <mxGeometry x="10" y="210" width="190" height="30" as="geometry" />
        </mxCell>
        <mxCell id="qrfUnAD27jfFioBGeQ4u-2" value="" style="swimlane;startSize=0;" vertex="1" parent="1">
          <mxGeometry x="40" y="440" width="240" height="320" as="geometry" />
        </mxCell>
        <mxCell id="qrfUnAD27jfFioBGeQ4u-3" value="banner.jpg" style="rounded=0;whiteSpace=wrap;html=1;" vertex="1" parent="qrfUnAD27jfFioBGeQ4u-2">
          <mxGeometry x="10" y="10" width="220" height="100" as="geometry" />
        </mxCell>
        <mxCell id="qrfUnAD27jfFioBGeQ4u-4" value="" style="rounded=1;whiteSpace=wrap;html=1;" vertex="1" parent="qrfUnAD27jfFioBGeQ4u-2">
          <mxGeometry x="10" y="210" width="220" height="90" as="geometry" />
        </mxCell>
        <mxCell id="qrfUnAD27jfFioBGeQ4u-5" value="Website" style="rounded=1;whiteSpace=wrap;html=1;" vertex="1" parent="qrfUnAD27jfFioBGeQ4u-2">
          <mxGeometry x="20" y="220" width="90" height="30" as="geometry" />
        </mxCell>
        <mxCell id="qrfUnAD27jfFioBGeQ4u-6" value="Discord" style="rounded=1;whiteSpace=wrap;html=1;" vertex="1" parent="qrfUnAD27jfFioBGeQ4u-2">
          <mxGeometry x="20" y="260" width="90" height="30" as="geometry" />
        </mxCell>
        <mxCell id="qrfUnAD27jfFioBGeQ4u-7" value="&lt;div&gt;Patreon&lt;/div&gt;" style="rounded=1;whiteSpace=wrap;html=1;" vertex="1" parent="qrfUnAD27jfFioBGeQ4u-2">
          <mxGeometry x="130" y="260" width="90" height="30" as="geometry" />
        </mxCell>
        <mxCell id="qrfUnAD27jfFioBGeQ4u-8" value="Github" style="rounded=1;whiteSpace=wrap;html=1;" vertex="1" parent="qrfUnAD27jfFioBGeQ4u-2">
          <mxGeometry x="130" y="220" width="90" height="30" as="geometry" />
        </mxCell>
        <mxCell id="qrfUnAD27jfFioBGeQ4u-9" value="&lt;b&gt;Play&lt;/b&gt;" style="rounded=1;whiteSpace=wrap;html=1;" vertex="1" parent="qrfUnAD27jfFioBGeQ4u-2">
          <mxGeometry x="10" y="160" width="220" height="30" as="geometry" />
        </mxCell>
        <mxCell id="qrfUnAD27jfFioBGeQ4u-10" value="&lt;b&gt;&lt;font style=&quot;font-size: 16px;&quot;&gt;Welcome to Project-86&lt;/font&gt;&lt;/b&gt;" style="text;html=1;align=center;verticalAlign=middle;whiteSpace=wrap;rounded=0;" vertex="1" parent="qrfUnAD27jfFioBGeQ4u-2">
          <mxGeometry x="10" y="120" width="220" height="30" as="geometry" />
        </mxCell>
        <mxCell id="qrfUnAD27jfFioBGeQ4u-11" value="" style="swimlane;startSize=0;" vertex="1" parent="1">
          <mxGeometry x="800" y="440" width="640" height="320" as="geometry" />
        </mxCell>
        <mxCell id="qrfUnAD27jfFioBGeQ4u-12" value="banner.jpg" style="rounded=0;whiteSpace=wrap;html=1;" vertex="1" parent="qrfUnAD27jfFioBGeQ4u-11">
          <mxGeometry x="10" y="40" width="390" height="240" as="geometry" />
        </mxCell>
        <mxCell id="qrfUnAD27jfFioBGeQ4u-13" value="" style="rounded=1;whiteSpace=wrap;html=1;" vertex="1" parent="qrfUnAD27jfFioBGeQ4u-11">
          <mxGeometry x="410" y="160" width="220" height="90" as="geometry" />
        </mxCell>
        <mxCell id="qrfUnAD27jfFioBGeQ4u-14" value="Website" style="rounded=1;whiteSpace=wrap;html=1;" vertex="1" parent="qrfUnAD27jfFioBGeQ4u-11">
          <mxGeometry x="420" y="170" width="90" height="30" as="geometry" />
        </mxCell>
        <mxCell id="qrfUnAD27jfFioBGeQ4u-15" value="Discord" style="rounded=1;whiteSpace=wrap;html=1;" vertex="1" parent="qrfUnAD27jfFioBGeQ4u-11">
          <mxGeometry x="420" y="210" width="90" height="30" as="geometry" />
        </mxCell>
        <mxCell id="qrfUnAD27jfFioBGeQ4u-16" value="&lt;div&gt;Patreon&lt;/div&gt;" style="rounded=1;whiteSpace=wrap;html=1;" vertex="1" parent="qrfUnAD27jfFioBGeQ4u-11">
          <mxGeometry x="530" y="210" width="90" height="30" as="geometry" />
        </mxCell>
        <mxCell id="qrfUnAD27jfFioBGeQ4u-17" value="Github" style="rounded=1;whiteSpace=wrap;html=1;" vertex="1" parent="qrfUnAD27jfFioBGeQ4u-11">
          <mxGeometry x="530" y="170" width="90" height="30" as="geometry" />
        </mxCell>
        <mxCell id="qrfUnAD27jfFioBGeQ4u-18" value="&lt;b&gt;Play&lt;/b&gt;" style="rounded=1;whiteSpace=wrap;html=1;" vertex="1" parent="qrfUnAD27jfFioBGeQ4u-11">
          <mxGeometry x="410" y="115" width="221" height="30" as="geometry" />
        </mxCell>
        <mxCell id="qrfUnAD27jfFioBGeQ4u-19" value="&lt;b&gt;&lt;font style=&quot;font-size: 16px;&quot;&gt;Welcome to Project-86&lt;/font&gt;&lt;/b&gt;" style="text;html=1;align=center;verticalAlign=middle;whiteSpace=wrap;rounded=0;" vertex="1" parent="qrfUnAD27jfFioBGeQ4u-11">
          <mxGeometry x="409" y="70" width="221" height="30" as="geometry" />
        </mxCell>
      </root>
    </mxGraphModel>
  </diagram>
</mxfile>
